# xmcd
#
# Track frame offsets: 
#        150
#        21533
#        40213
#        55845
#        67804
#        84244
#        101176
#        118866
#        133365
#        154162
#        175500
#
# Disc length: 2596 seconds
#
# Revision: 1
# Processed by: cddbd v1.5.2PL0 Copyright (c) Steve Scherf et al.
# Submitted via: ExactAudioCopy v1.0b3
#
DISCID=930a220b
DTITLE=Soyka - Acoustic
DYEAR=1990
DGENRE=Vocal
TTITLE0=One Hundred Years
TTITLE1=I Never Felt This Before
TTITLE2=Take It Home
TTITLE3=Mr Cool
TTITLE4=No Place For Poetry
TTITLE5=Cud niepamieci
TTITLE6=Play It Again
TTITLE7=Railway Hotel
TTITLE8=All About You
TTITLE9=Tak Jak W Kinie
TTITLE10=Hard To Part
EXTD=
EXTT0=
EXTT1=
EXTT2=
EXTT3=
EXTT4=
EXTT5=
EXTT6=
EXTT7=
EXTT8=
EXTT9=
EXTT10=
PLAYORDER=
